<svg width="128" height="158" viewBox="0 0 128 158" fill="none" xmlns="http://www.w3.org/2000/svg">
<g clip-path="url(#clip0_4613_99)">
<mask id="mask0_4613_99" style="mask-type:alpha" maskUnits="userSpaceOnUse" x="0" y="0" width="128" height="158">
<path fill-rule="evenodd" clip-rule="evenodd" d="M70.35 1.16099L124.355 19.64C126.222 20.2237 127.5 22.0148 127.5 24.0464V91.8026C127.5 100.616 124.078 109.637 117.329 118.616C112.173 125.474 105.042 132.361 96.1316 139.085C81.1631 150.38 66.4237 157.309 65.8038 157.598C65.2304 157.866 64.6155 158 64.0006 158C63.3857 158 62.7708 157.866 62.1974 157.598C61.5772 157.309 46.8375 150.38 31.869 139.085C22.9588 132.361 15.8269 125.474 10.672 118.616C3.92255 109.637 0.5 100.615 0.5 91.8026V24.0464C0.5 22.0148 1.77834 20.2237 3.64481 19.64L57.65 1.16102C61.46 -0.387005 66.54 -0.386998 70.35 1.16099ZM69.85 7.07282L119.603 24.1483C121.323 24.6877 122.5 26.3428 122.5 28.2201V90.8302C122.5 98.974 119.348 107.31 113.129 115.607C108.38 121.945 101.81 128.308 93.6016 134.521C79.8116 144.959 66.2329 151.361 65.6618 151.629C65.1335 151.876 64.567 152 64.0005 152C63.4341 152 62.8676 151.876 62.3393 151.629C61.768 151.361 48.1889 144.959 34.399 134.521C26.1904 128.308 19.62 121.945 14.8711 115.607C8.65306 107.31 5.5 98.9738 5.5 90.8302V28.2201C5.5 26.3428 6.67769 24.6877 8.39719 24.1483L58.15 7.07284C61.66 5.64239 66.34 5.64239 69.85 7.07282Z" fill="#D9D9D9"/>
</mask>
<g mask="url(#mask0_4613_99)">
<circle cx="65.5" cy="75" r="86" fill="url(#paint0_linear_4613_99)"/>
<circle cx="11.5" cy="2.5" r="54.5" fill="white"/>
<circle cx="24.5" cy="87.5" r="54.5" fill="white"/>
<circle cx="74.5" cy="117.5" r="54.5" fill="white"/>
<circle cx="125.5" cy="79.5" r="54.5" fill="white"/>
<circle cx="103.5" cy="35.5" r="54.5" fill="white"/>
</g>
<path d="M119.603 24.1483L69.85 7.07282C66.34 5.64239 61.66 5.64239 58.15 7.07284L8.39719 24.1483C6.67769 24.6877 5.5 26.3428 5.5 28.2201V90.8302C5.5 98.9738 8.65306 107.31 14.8711 115.607C19.62 121.945 26.1904 128.308 34.399 134.521C48.1889 144.959 61.768 151.361 62.3393 151.629C62.8676 151.876 63.4341 152 64.0005 152C64.567 152 65.1335 151.876 65.6618 151.629C66.2329 151.361 79.8116 144.959 93.6016 134.521C101.81 128.308 108.38 121.945 113.129 115.607C119.348 107.31 122.5 98.974 122.5 90.8302V28.2201C122.5 26.3428 121.323 24.6877 119.603 24.1483Z" fill="#EFF5F7"/>
<path d="M105.346 38.4248L68.35 25.7936C65.74 24.7355 62.26 24.7355 59.65 25.7936L22.6543 38.4248C21.3757 38.8238 20.5 40.0481 20.5 41.4368V87.7511C20.5 93.7751 22.8446 99.9417 27.4682 106.079C30.9995 110.767 35.8852 115.474 41.989 120.07C52.243 127.791 62.3403 132.528 62.7651 132.725C63.1579 132.908 63.5792 133 64.0004 133C64.4216 133 64.8429 132.909 65.2357 132.725C65.6603 132.528 75.7574 127.791 86.0114 120.07C92.1152 115.474 97.0007 110.767 100.532 106.079C105.156 99.9419 107.5 93.7753 107.5 87.7511V41.4368C107.5 40.0481 106.625 38.8238 105.346 38.4248Z" fill="#E2EDF2"/>
<path fill-rule="evenodd" clip-rule="evenodd" d="M64.0707 73.5508C65.0932 73.5508 65.9299 74.3849 65.9299 75.4044C65.9299 76.0531 65.6045 76.6555 65.0932 76.9799L65.9299 80.2237H64.0707H62.2114L63.0481 76.9799C62.5368 76.6555 62.2114 76.0531 62.2114 75.4044C62.2114 74.4312 63.0481 73.5508 64.0707 73.5508Z" fill="#2E3542"/>
<path d="M51.6129 84.4405C51.7523 84.6722 51.8918 84.9039 52.0777 85.1356C52.2636 85.3673 52.4031 85.599 52.6355 85.8307C52.8214 86.0624 53.0538 86.2941 53.2397 86.5258C53.4721 86.7575 53.7045 86.9892 53.9369 87.2672C54.1693 87.4989 54.4017 87.7306 54.6806 88.0087C54.9595 88.2404 55.1919 88.5184 55.4708 88.7501C55.7497 88.9818 56.0286 89.2135 56.3074 89.4915C56.5863 89.7232 56.8652 89.9549 57.1906 90.1866C57.5159 90.4183 57.7948 90.65 58.1202 90.8817C58.4456 91.1134 58.7709 91.3451 59.0498 91.5305C59.3752 91.7622 59.7005 91.9475 60.0259 92.1792C60.3048 92.3646 60.6301 92.55 60.9555 92.7817C61.2344 92.967 61.5598 93.1524 61.9316 93.3377C62.257 93.5231 62.5823 93.7085 62.9077 93.8938C63.2795 94.0792 63.6049 94.2645 63.9303 94.4499L63.9768 94.4962L64.0232 94.4499C64.3486 94.2645 64.7205 94.0792 65.0458 93.8938C65.3712 93.7085 65.743 93.5231 66.0219 93.3377C66.3473 93.1524 66.6726 92.967 66.998 92.7817C67.3234 92.5963 67.6487 92.3646 67.9741 92.1792C68.2995 91.9475 68.6248 91.7622 68.9502 91.5305C69.2756 91.2988 69.6009 91.1134 69.8798 90.8817C70.2052 90.65 70.4841 90.4183 70.8094 90.1866C71.0883 89.9549 71.4137 89.7232 71.6926 89.4915C72.0179 89.2598 72.2968 88.9818 72.5292 88.7501C72.8081 88.5184 73.087 88.2404 73.3194 88.0087C73.5983 87.777 73.8307 87.4989 74.0631 87.2672C74.2955 87.0355 74.5279 86.8038 74.7603 86.5258C74.9927 86.2941 75.1786 86.0624 75.3645 85.8307C75.5505 85.599 75.7364 85.3673 75.9223 85.1356C76.1082 84.9039 76.2477 84.6722 76.3871 84.4405C76.5266 84.2088 76.666 83.9771 76.759 83.7918C76.8519 83.6527 76.8984 83.5137 76.9914 83.3747C77.0378 83.2357 77.1308 83.0967 77.1773 83.004C77.2238 82.865 77.2703 82.7723 77.3167 82.6333C77.3632 82.5406 77.3632 82.4016 77.4097 82.3089C77.4562 82.0772 77.4562 81.8455 77.5027 81.6138C77.5027 81.3821 77.5027 81.1504 77.5027 80.8724V80.7333V80.687C77.5027 80.548 77.5027 80.4553 77.5027 80.409C77.5027 80.3163 77.5027 80.2236 77.5027 80.1309V80.0382H72.8546C71.1348 84.3478 68.2065 88.0087 63.9768 91.5768C59.7935 88.0087 56.8187 84.3478 55.0989 80.0382H50.5438H50.2649H48.5916H48.3127H46.9648H46.6859V79.7602V67.2948V66.7851V66.5997V66.4607L46.7789 66.4144L46.9183 66.2753L47.2902 65.951C47.8479 65.3949 48.4522 64.8851 49.0564 64.3754C49.6607 63.8657 50.3114 63.4023 50.9622 62.9852C51.6129 62.5682 52.3101 62.1511 52.9608 61.7804C53.658 61.4097 54.3552 61.0853 55.0525 60.8072C55.7497 60.5292 56.4934 60.2512 57.2371 60.0195C57.9807 59.7878 58.7709 59.6024 59.5146 59.4634C60.2583 59.3244 61.0485 59.1854 61.7922 59.139C62.5359 59.0463 63.326 59 64.0697 59C64.8134 59 65.6036 59.0463 66.3473 59.0927C67.1374 59.1854 67.8811 59.3244 68.6248 59.4634C69.3685 59.6024 70.1122 59.7878 70.8559 60.0195C71.5996 60.2512 72.3433 60.4829 73.0405 60.8072C73.7377 61.0853 74.4349 61.4097 75.1321 61.7804C75.8293 62.1511 76.4801 62.5218 77.1308 62.9852C77.7815 63.4023 78.4323 63.8657 79.0365 64.3754C79.6408 64.8851 80.245 65.3949 80.8028 65.951L81.1746 66.3217L81.3141 66.4607L81.407 66.5534V66.6924V66.8778V67.3875V73.18V73.3653H81.1282H77.828H77.5491V73.0873V68.1753V68.1289L77.5027 68.0826C77.0378 67.6655 76.573 67.2948 76.0618 66.9241C75.5505 66.5534 75.0857 66.229 74.5744 65.9046C74.0631 65.5802 73.5053 65.3022 72.994 65.0242C72.4363 64.7461 71.925 64.5144 71.3672 64.2827C70.7629 64.051 70.2052 63.8657 69.6009 63.6803C68.9967 63.495 68.3924 63.3559 67.7882 63.2169C67.1839 63.0779 66.5332 63.0316 65.929 62.9389C65.3247 62.8925 64.674 62.8462 64.0697 62.8462C63.4655 62.8462 62.8147 62.8925 62.2105 62.9389C61.6062 62.9852 60.9555 63.0779 60.3513 63.2169C59.747 63.3559 59.1428 63.495 58.5385 63.6803C57.9343 63.8657 57.33 64.051 56.7722 64.2827C56.2145 64.5144 55.6567 64.7461 55.1454 65.0242C54.6341 65.3022 54.0764 65.5802 53.5651 65.9046C53.0538 66.229 52.5425 66.5534 52.0777 66.9241C51.6129 67.2948 51.1016 67.6655 50.6368 68.0826L50.5903 68.1289V68.1753V76.0994H54.0764C53.6116 73.9214 53.3791 71.5581 53.4256 68.963C60.7696 66.5997 67.4628 66.5997 74.8068 68.963C74.8533 71.5581 74.6208 73.9214 74.156 76.0994H77.6421H77.921H81.2211H81.5V76.3774V80.0382C81.5 81.7991 81.5 82.6796 81.3606 83.3747C81.2211 84.1161 80.9422 84.5795 80.4309 85.5063L80.3845 85.599C80.245 85.877 80.0591 86.1551 79.8732 86.4331C79.6873 86.7112 79.5013 86.9892 79.2689 87.2672C79.083 87.5453 78.8506 87.8233 78.6182 88.1477C78.3858 88.4257 78.1534 88.7501 77.8745 89.0281C77.6421 89.3062 77.3632 89.5842 77.0843 89.9086C76.8054 90.1866 76.5266 90.4647 76.2012 90.7427C75.9223 91.0208 75.5969 91.2988 75.2716 91.5768C74.9462 91.8549 74.6208 92.1329 74.2955 92.4109C73.9701 92.689 73.6448 92.9207 73.2729 93.1987C72.9475 93.4768 72.5757 93.7085 72.2039 93.9865C71.832 94.2182 71.4602 94.4962 71.0883 94.7743C70.7165 95.006 70.3446 95.284 69.9263 95.5157C69.5544 95.7474 69.1361 96.0254 68.7178 96.2571C68.346 96.4888 67.9276 96.7205 67.4628 96.9522C67.0445 97.1839 66.6262 97.4156 66.1614 97.6473C65.743 97.879 65.2782 98.1107 64.8599 98.2961L64.3021 98.5741L64.1162 98.6668L63.9768 98.7132L63.8373 98.6668L63.6514 98.5741L63.0936 98.2961C62.6288 98.0644 62.2105 97.879 61.7922 97.6473C61.3738 97.4156 60.909 97.1839 60.4907 96.9522C60.0724 96.7205 59.654 96.4888 59.2357 96.2571C58.8174 96.0254 58.4455 95.7938 58.0272 95.5157C57.6089 95.284 57.2371 95.006 56.8652 94.7743C56.4934 94.4962 56.1215 94.2645 55.7497 93.9865C55.3778 93.7085 55.0525 93.4768 54.6806 93.1987C54.3088 92.9207 53.9834 92.6426 53.658 92.4109C53.3327 92.1329 53.0073 91.8549 52.6819 91.5768C52.3566 91.2988 52.0312 91.0208 51.7523 90.7427C51.4734 90.4647 51.1481 90.1866 50.8692 89.9086C50.5903 89.6306 50.3114 89.3062 50.079 89.0281C49.8001 88.7501 49.5677 88.4257 49.3353 88.1477C49.1029 87.8697 48.8705 87.5916 48.6846 87.2672C48.4987 86.9892 48.2663 86.7112 48.0803 86.4331C47.8944 86.1551 47.7085 85.877 47.5691 85.599L47.5226 85.5063C47.2437 84.9503 47.0113 84.5795 46.8718 84.2088C46.7324 83.8381 46.593 83.4674 46.5465 82.9576L46.5 82.6333H46.8254H50.2649H50.4509L50.5438 82.8186V82.865V82.9113C50.5903 83.0503 50.6368 83.143 50.7297 83.282C50.7762 83.421 50.8692 83.5601 50.9622 83.6991C51.334 83.9771 51.427 84.2088 51.6129 84.4405ZM70.9954 71.5117C66.7191 70.3996 61.4668 70.3532 57.1441 71.5117C57.33 77.3042 59.9329 82.8186 64.0697 86.8502C68.2065 82.7723 70.8094 77.3042 70.9954 71.5117Z" fill="url(#paint1_linear_4613_99)"/>
</g>
<defs>
<linearGradient id="paint0_linear_4613_99" x1="-98.8406" y1="367.624" x2="305.533" y2="364.229" gradientUnits="userSpaceOnUse">
<stop stop-color="#1D973F"/>
<stop offset="1" stop-color="#05539A"/>
</linearGradient>
<linearGradient id="paint1_linear_4613_99" x1="30.5586" y1="146.421" x2="112.845" y2="145.812" gradientUnits="userSpaceOnUse">
<stop stop-color="#24B04B"/>
<stop offset="1" stop-color="#0263BC"/>
</linearGradient>
<clipPath id="clip0_4613_99">
<rect width="127" height="158" fill="white" transform="translate(0.5)"/>
</clipPath>
</defs>
</svg>
