<svg width="119" height="48" viewBox="0 0 119 48" fill="none" xmlns="http://www.w3.org/2000/svg">
<path fill-rule="evenodd" clip-rule="evenodd" d="M63.9999 5.63965C62.03 5.63965 60.4161 7.17904 60.4161 9.14028C60.4161 10.0334 60.5869 10.7593 61.1661 11.3914C61.7378 12.0152 62.6936 12.5319 64.2215 13.0496C64.8689 13.2709 65.2701 13.5143 65.5108 13.7968C65.7476 14.0745 65.8418 14.4051 65.8418 14.8323C65.8418 15.4099 65.6562 15.8944 65.3384 16.2332C65.0215 16.5712 64.5641 16.774 63.9999 16.774C63.4378 16.774 62.9813 16.5644 62.6619 16.2048C62.341 15.8435 62.1494 15.3203 62.1414 14.6808L62.1397 14.5438H60.0645L60.0666 14.6845C60.0837 15.8726 60.4945 16.8776 61.1924 17.5863C61.8905 18.2952 62.8674 18.6991 63.9999 18.6991C65.1223 18.6991 66.1027 18.3131 66.8032 17.6321C67.5042 16.9507 67.9166 15.9818 67.9166 14.8323C67.9166 13.7442 67.665 12.9238 67.0557 12.2684C66.4523 11.6195 65.5128 11.1488 64.1753 10.7224C63.5834 10.5334 63.1617 10.3207 62.8888 10.0612C62.622 9.8076 62.4909 9.50324 62.4909 9.107C62.4909 8.28307 63.2128 7.56472 63.9999 7.56472C64.4768 7.56472 64.8722 7.72053 65.148 7.99635C65.4236 8.27195 65.5921 8.67967 65.5921 9.20686V9.34555H67.6692L67.667 9.20471C67.6498 8.09885 67.2631 7.20433 66.6082 6.58659C65.9542 5.96963 65.0444 5.63965 63.9999 5.63965ZM105.462 10.7723V8.71085L105.316 8.71886C104.256 8.77692 103.546 9.08465 103.082 9.58378V8.9683H101.19V18.4661H103.198V13.1513C103.198 12.3987 103.384 11.8201 103.734 11.4249C104.081 11.0317 104.607 10.8008 105.328 10.7768L105.462 10.7723ZM74.0075 8.71865C71.4818 8.71865 69.2253 10.8138 69.2253 13.8004C69.2253 16.3351 71.3795 18.6991 74.0574 18.6991C76.0981 18.6991 77.8791 17.4294 78.6143 15.4804L78.6851 15.2927H76.6711L76.6317 15.3653C76.1245 16.3004 75.1574 16.8406 74.124 16.8406C72.833 16.8406 71.7075 15.9811 71.2788 14.6048H78.8527L78.8712 14.4878C78.9228 14.1608 78.9228 13.8853 78.9228 13.6041V13.604V13.6007C78.9228 10.8778 76.7969 8.71865 74.0075 8.71865ZM84.7358 8.71865C81.9558 8.71865 79.887 10.9517 79.887 13.8004C79.887 16.505 82.0279 18.6991 84.7524 18.6991C86.8586 18.6991 88.6751 17.4634 89.4268 15.3277L89.4919 15.143H87.276L87.2391 15.2244C86.7783 16.2413 85.8782 16.8406 84.7524 16.8406C83.0951 16.8406 81.8953 15.4691 81.8953 13.7005C81.8953 12.79 82.1892 12.0093 82.6932 11.4578C83.1963 10.9074 83.9158 10.5772 84.7857 10.5772C85.3844 10.5772 85.8763 10.7324 86.2794 11.0122C86.6836 11.2928 87.0066 11.7043 87.2569 12.2291L87.2945 12.3081H89.478L89.4297 12.1326C88.8621 10.0684 86.888 8.71865 84.7358 8.71865ZM110.707 8.71865C108.182 8.71865 105.925 10.8138 105.925 13.8004C105.925 16.3351 108.079 18.6991 110.757 18.6991C112.798 18.6991 114.579 17.4294 115.314 15.4804L115.385 15.2927H113.371L113.331 15.3653C112.824 16.3004 111.857 16.8406 110.824 16.8406C109.533 16.8406 108.407 15.9811 107.978 14.6048H115.552L115.571 14.4878C115.623 14.1608 115.623 13.8853 115.623 13.604V13.6007C115.623 10.8778 113.497 8.71865 110.707 8.71865ZM92.7959 8.9683H90.7876V14.2498C90.7876 15.8993 91.262 17.018 92.0108 17.7231C92.7578 18.4265 93.7574 18.6991 94.7709 18.6991C95.8459 18.6991 96.822 18.3547 97.3783 17.7142V18.4661H99.2368V8.9683H97.2285V14.0833C97.2285 14.955 97.0287 15.6439 96.6517 16.1121C96.2785 16.5758 95.7177 16.8406 94.9539 16.8406C94.1917 16.8406 93.6639 16.6173 93.3213 16.1857C92.9733 15.7473 92.7959 15.0693 92.7959 14.1166V8.9683ZM76.898 12.996H71.25C71.4505 11.573 72.7534 10.5772 74.0574 10.5772C75.4246 10.5772 76.6987 11.5873 76.898 12.996ZM113.598 12.996H107.95C108.15 11.573 109.453 10.5772 110.757 10.5772C112.124 10.5772 113.398 11.5873 113.598 12.996ZM64.5641 26.2148H60.8471V38.8082H62.9219V33.9484H64.5807C65.9332 33.9484 67.0466 33.6146 67.8242 32.9565C68.6051 32.2955 69.03 31.322 69.03 30.0816C69.03 28.8403 68.5962 27.8669 67.8092 27.2063C67.0256 26.5487 65.9084 26.2148 64.5641 26.2148ZM77.8741 26.2148H75.8658V28.5227H77.8741V26.2148ZM62.9219 32.0233V28.1399H64.5474C65.3102 28.1399 65.9123 28.3186 66.3208 28.6443C66.725 28.9664 66.9551 29.4445 66.9551 30.0816C66.9551 30.7115 66.7324 31.1897 66.3343 31.5135C65.9322 31.8406 65.3348 32.0233 64.5641 32.0233H62.9219ZM74.4489 31.1145V29.053L74.3027 29.061C73.2431 29.1191 72.5328 29.4268 72.069 29.9259V29.3104H70.1772V38.8082H72.1855V33.4935C72.1855 32.7409 72.3716 32.1622 72.7207 31.767C73.0681 31.3738 73.594 31.143 74.3149 31.1189L74.4489 31.1145ZM92.9284 29.0608C90.1364 29.0608 87.9631 31.1892 87.9631 34.2091C87.9631 36.9555 90.2291 39.0412 92.9949 39.0412C94.2113 39.0412 95.3148 38.5701 96.0185 37.6436V38.8082H98.0267V29.3104H96.0185V30.3782C95.2702 29.4839 94.1836 29.0608 92.9284 29.0608ZM104.352 29.0608C101.572 29.0608 99.5029 31.2939 99.5029 34.1425C99.5029 36.8472 101.644 39.0412 104.368 39.0412C106.474 39.0412 108.291 37.8055 109.043 35.6698L109.108 35.4851H106.892L106.855 35.5666C106.394 36.5835 105.494 37.1827 104.368 37.1827C102.711 37.1827 101.511 35.8113 101.511 34.0427C101.511 33.1321 101.805 32.3515 102.309 31.8C102.812 31.2495 103.532 30.9193 104.402 30.9193C105 30.9193 105.492 31.0745 105.895 31.3543C106.299 31.6349 106.622 32.0465 106.873 32.5712L106.91 32.6502H109.094L109.046 32.4747C108.478 30.4106 106.504 29.0608 104.352 29.0608ZM77.8741 29.3104H75.8658V38.8082H77.8741V29.3104ZM81.0158 29.3104H78.8672L82.6389 38.8082H84.0425L87.7799 29.3104H85.6312L83.3477 35.6787L81.0158 29.3104ZM111.245 29.3104H109.079L112.813 38.486L111.408 41.8872H113.505L118.713 29.3104H116.546L113.864 36.2186L111.245 29.3104ZM89.9714 34.076C89.9714 32.3323 91.33 30.9193 92.9783 30.9193C94.8078 30.9193 96.0517 32.347 96.0517 34.076C96.0517 35.7502 94.6959 37.1827 92.9783 37.1827C91.3295 37.1827 89.9714 35.7359 89.9714 34.076Z" fill="white"/>
<path fill-rule="evenodd" clip-rule="evenodd" d="M21.5229 17.5864C22.7589 17.5864 23.7701 18.5946 23.7701 19.8268C23.7701 20.6109 23.3768 21.3391 22.7589 21.7311L23.7701 25.6518H21.5229H19.2757L20.287 21.7311C19.669 21.3391 19.2757 20.6109 19.2757 19.8268C19.2757 18.6506 20.287 17.5864 21.5229 17.5864Z" fill="white"/>
<path d="M6.46667 30.7491C6.63521 31.0292 6.80375 31.3092 7.02847 31.5893C7.25319 31.8693 7.42173 32.1494 7.70263 32.4294C7.92735 32.7095 8.20825 32.9895 8.43296 33.2695C8.71386 33.5496 8.99476 33.8296 9.27566 34.1657C9.55656 34.4457 9.83746 34.7258 10.1745 35.0618C10.5116 35.3419 10.7925 35.6779 11.1296 35.958C11.4667 36.238 11.8038 36.5181 12.1408 36.8541C12.4779 37.1342 12.815 37.4142 13.2082 37.6943C13.6015 37.9743 13.9386 38.2544 14.3318 38.5344C14.7251 38.8145 15.1184 39.0945 15.4554 39.3186C15.8487 39.5986 16.242 39.8226 16.6352 40.1027C16.9723 40.3267 17.3656 40.5508 17.7588 40.8308C18.0959 41.0548 18.4891 41.2789 18.9386 41.5029C19.3318 41.727 19.7251 41.951 20.1184 42.175C20.5678 42.3991 20.9611 42.6231 21.3543 42.8471L21.4105 42.9031L21.4667 42.8471C21.8599 42.6231 22.3094 42.3991 22.7026 42.175C23.0959 41.951 23.5453 41.727 23.8824 41.5029C24.2757 41.2789 24.6689 41.0548 25.0622 40.8308C25.4554 40.6068 25.8487 40.3267 26.242 40.1027C26.6352 39.8226 27.0285 39.5986 27.4217 39.3186C27.815 39.0385 28.2083 38.8145 28.5453 38.5344C28.9386 38.2544 29.2757 37.9743 29.6689 37.6943C30.006 37.4142 30.3993 37.1342 30.7363 36.8541C31.1296 36.5741 31.4667 36.238 31.7476 35.958C32.0847 35.6779 32.4217 35.3419 32.7026 35.0618C33.0397 34.7818 33.3206 34.4457 33.6015 34.1657C33.8824 33.8856 34.1633 33.6056 34.4442 33.2695C34.7251 32.9895 34.9498 32.7095 35.1745 32.4294C35.3993 32.1494 35.624 31.8693 35.8487 31.5893C36.0734 31.3092 36.242 31.0292 36.4105 30.7491C36.579 30.4691 36.7476 30.189 36.8599 29.965C36.9723 29.797 37.0285 29.6289 37.1408 29.4609C37.197 29.2929 37.3094 29.1249 37.3656 29.0128C37.4217 28.8448 37.4779 28.7328 37.5341 28.5648C37.5903 28.4527 37.5903 28.2847 37.6465 28.1727C37.7026 27.8926 37.7026 27.6126 37.7588 27.3326C37.7588 27.0525 37.7588 26.7725 37.7588 26.4364V26.2684V26.2124C37.7588 26.0443 37.7588 25.9323 37.7588 25.8763C37.7588 25.7643 37.7588 25.6523 37.7588 25.5403V25.4282H32.1408C30.0622 30.6371 26.5229 35.0618 21.4105 39.3746C16.3543 35.0618 12.7588 30.6371 10.6802 25.4282H5.17454H4.83746H2.81499H2.47791H0.848694H0.511615V25.0922V10.0257V9.40957V9.18553V9.0175L0.623974 8.96149L0.792514 8.79347L1.24195 8.4014C1.91611 7.72929 2.64645 7.11319 3.37678 6.49708C4.10712 5.88098 4.89364 5.32089 5.68015 4.8168C6.46667 4.31272 7.30937 3.80863 8.09589 3.36056C8.93858 2.91249 9.78128 2.52042 10.624 2.18436C11.4667 1.84831 12.3656 1.51225 13.2644 1.23221C14.1633 0.952159 15.1184 0.728121 16.0172 0.560093C16.9161 0.392065 17.8712 0.224037 18.77 0.168028C19.6689 0.0560093 20.624 0 21.5229 0C22.4217 0 23.3768 0.0560093 24.2757 0.112019C25.2307 0.224037 26.1296 0.392065 27.0285 0.560093C27.9274 0.728121 28.8262 0.952159 29.7251 1.23221C30.624 1.51225 31.5229 1.7923 32.3656 2.18436C33.2083 2.52042 34.0509 2.91249 34.8936 3.36056C35.7363 3.80863 36.5229 4.25671 37.3094 4.8168C38.0959 5.32089 38.8824 5.88098 39.6127 6.49708C40.3431 7.11319 41.0734 7.72929 41.7476 8.4014L42.197 8.84947L42.3656 9.0175L42.4779 9.12952V9.29755V9.52159V10.1377V17.1389V17.3629H42.1408H38.1521H37.815V17.0268V11.0898V11.0338L37.7588 10.9778C37.197 10.4737 36.6352 10.0257 36.0172 9.5776C35.3993 9.12952 34.8375 8.73746 34.2195 8.34539C33.6015 7.95333 32.9274 7.61727 32.3094 7.28121C31.6352 6.94516 31.0172 6.66511 30.3431 6.38506C29.6127 6.10502 28.9386 5.88098 28.2083 5.65694C27.4779 5.43291 26.7476 5.26488 26.0172 5.09685C25.2869 4.92882 24.5004 4.87281 23.77 4.76079C23.0397 4.70478 22.2532 4.64877 21.5229 4.64877C20.7925 4.64877 20.006 4.70478 19.2757 4.76079C18.5453 4.8168 17.7588 4.92882 17.0285 5.09685C16.2981 5.26488 15.5678 5.43291 14.8375 5.65694C14.1071 5.88098 13.3768 6.10502 12.7026 6.38506C12.0285 6.66511 11.3543 6.94516 10.7363 7.28121C10.1184 7.61727 9.4442 7.95333 8.82622 8.34539C8.20825 8.73746 7.59027 9.12952 7.02847 9.5776C6.46667 10.0257 5.84869 10.4737 5.2869 10.9778L5.23072 11.0338V11.0898V20.6674H9.4442C8.8824 18.035 8.6015 15.1785 8.65768 12.042C17.5341 9.18553 25.624 9.18553 34.5004 12.042C34.5566 15.1785 34.2757 18.035 33.7139 20.6674H37.9274H38.2644H42.2532H42.5903V21.0035V25.4282C42.5903 27.5566 42.5903 28.6208 42.4217 29.4609C42.2532 30.3571 41.9161 30.9172 41.2981 32.0373L41.242 32.1494C41.0734 32.4854 40.8487 32.8215 40.624 33.1575C40.3993 33.4936 40.1745 33.8296 39.8936 34.1657C39.6689 34.5018 39.388 34.8378 39.1071 35.2299C38.8262 35.5659 38.5453 35.958 38.2083 36.2941C37.9274 36.6301 37.5903 36.9662 37.2532 37.3582C36.9161 37.6943 36.579 38.0303 36.1858 38.3664C35.8487 38.7024 35.4554 39.0385 35.0622 39.3746C34.6689 39.7106 34.2757 40.0467 33.8824 40.3827C33.4892 40.7188 33.0959 40.9988 32.6465 41.3349C32.2532 41.6709 31.8038 41.951 31.3543 42.287C30.9049 42.5671 30.4554 42.9031 30.006 43.2392C29.5566 43.5193 29.1071 43.8553 28.6015 44.1354C28.1521 44.4154 27.6465 44.7515 27.1408 45.0315C26.6914 45.3116 26.1858 45.5916 25.624 45.8716C25.1184 46.1517 24.6127 46.4317 24.0509 46.7118C23.5453 46.9918 22.9835 47.2719 22.4779 47.4959L21.8038 47.832L21.579 47.944L21.4105 48L21.242 47.944L21.0172 47.832L20.3431 47.4959C19.7813 47.2159 19.2757 46.9918 18.77 46.7118C18.2644 46.4317 17.7026 46.1517 17.197 45.8716C16.6914 45.5916 16.1858 45.3116 15.6802 45.0315C15.1745 44.7515 14.7251 44.4714 14.2195 44.1354C13.7139 43.8553 13.2644 43.5193 12.815 43.2392C12.3655 42.9031 11.9161 42.6231 11.4667 42.287C11.0172 41.951 10.624 41.6709 10.1745 41.3349C9.7251 40.9988 9.33184 40.6628 8.93858 40.3827C8.54532 40.0467 8.15207 39.7106 7.75881 39.3746C7.36555 39.0385 6.97229 38.7024 6.63521 38.3664C6.29813 38.0303 5.90487 37.6943 5.5678 37.3582C5.23072 37.0222 4.89364 36.6301 4.61274 36.2941C4.27566 35.958 3.99476 35.5659 3.71386 35.2299C3.43296 34.8938 3.15207 34.5578 2.92735 34.1657C2.70263 33.8296 2.42173 33.4936 2.19701 33.1575C1.97229 32.8215 1.74757 32.4854 1.57903 32.1494L1.52285 32.0373C1.18577 31.3652 0.904873 30.9172 0.736334 30.4691C0.567795 30.021 0.399255 29.5729 0.343076 28.9568L0.286896 28.5648H0.680154H4.83746H5.06218L5.17454 28.7888V28.8448V28.9008C5.23072 29.0688 5.2869 29.1809 5.39926 29.3489C5.45544 29.5169 5.5678 29.6849 5.68015 29.853C6.12959 30.189 6.24195 30.4691 6.46667 30.7491ZM29.8936 15.1225C24.7251 13.7783 18.3768 13.7223 13.1521 15.1225C13.3768 22.1237 16.5229 28.7888 21.5229 33.6616C26.5229 28.7328 29.6689 22.1237 29.8936 15.1225Z" fill="white"/>
</svg>
