<svg width="189" height="77" viewBox="0 0 189 77" fill="none" xmlns="http://www.w3.org/2000/svg">
<path fill-rule="evenodd" clip-rule="evenodd" d="M101.681 9.00031C98.5371 9.00031 95.9614 11.4571 95.9614 14.587C95.9614 16.0124 96.234 17.1709 97.1584 18.1796C98.0707 19.1752 99.5961 19.9998 102.035 20.826C103.068 21.1791 103.708 21.5677 104.092 22.0184C104.47 22.4616 104.62 22.9892 104.62 23.671C104.62 24.5929 104.324 25.366 103.817 25.9068C103.311 26.4461 102.581 26.7698 101.681 26.7698C100.784 26.7698 100.055 26.4352 99.5455 25.8614C99.0334 25.2848 98.7276 24.4499 98.7149 23.4292L98.7122 23.2106H95.4004L95.4036 23.4351C95.4309 25.3312 96.0866 26.9351 97.2004 28.0662C98.3144 29.1975 99.8736 29.8421 101.681 29.8421C103.472 29.8421 105.037 29.2261 106.155 28.1393C107.273 27.0518 107.932 25.5055 107.932 23.671C107.932 21.9345 107.53 20.6252 106.558 19.5792C105.595 18.5436 104.095 17.7924 101.961 17.112C101.016 16.8103 100.343 16.4709 99.9077 16.0568C99.4819 15.652 99.2727 15.1663 99.2727 14.5339C99.2727 13.219 100.425 12.0726 101.681 12.0726C102.442 12.0726 103.073 12.3212 103.513 12.7614C103.953 13.2012 104.222 13.8519 104.222 14.6933V14.9146H107.537L107.533 14.6898C107.506 12.925 106.889 11.4974 105.844 10.5116C104.8 9.52693 103.348 9.00031 101.681 9.00031ZM167.851 17.1916V13.9017L167.617 13.9145C165.926 14.0071 164.793 14.4983 164.052 15.2948V14.3126H161.033V29.4702H164.238V20.9883C164.238 19.7873 164.535 18.8638 165.093 18.233C165.647 17.6055 166.486 17.2371 167.637 17.1988L167.851 17.1916ZM117.652 13.9141C113.621 13.9141 110.02 17.2578 110.02 22.0242C110.02 26.0694 113.458 29.8421 117.732 29.8421C120.989 29.8421 123.831 27.8157 125.004 24.7053L125.117 24.4059H121.903L121.84 24.5217C121.031 26.014 119.487 26.8761 117.838 26.8761C115.778 26.8761 113.982 25.5044 113.297 23.308H125.385L125.414 23.1212C125.497 22.5993 125.497 22.1597 125.497 21.7108V21.7108V21.7055C125.497 17.36 122.104 13.9141 117.652 13.9141ZM134.774 13.9141C130.337 13.9141 127.035 17.4779 127.035 22.0242C127.035 26.3406 130.452 29.8421 134.8 29.8421C138.162 29.8421 141.06 27.87 142.26 24.4616L142.364 24.1668H138.828L138.769 24.2968C138.033 25.9197 136.597 26.8761 134.8 26.8761C132.155 26.8761 130.24 24.6874 130.24 21.8648C130.24 20.4116 130.709 19.1658 131.514 18.2856C132.317 17.4072 133.465 16.8802 134.853 16.8802C135.809 16.8802 136.594 17.1278 137.237 17.5744C137.882 18.0222 138.398 18.6791 138.797 19.5165L138.857 19.6425H142.342L142.265 19.3625C141.359 16.0683 138.208 13.9141 134.774 13.9141ZM176.222 13.9141C172.191 13.9141 168.59 17.2578 168.59 22.0242C168.59 26.0694 172.028 29.8421 176.302 29.8421C179.558 29.8421 182.401 27.8157 183.574 24.7053L183.687 24.4059H180.473L180.41 24.5217C179.601 26.014 178.057 26.8761 176.408 26.8761C174.348 26.8761 172.551 25.5044 171.867 23.308H183.954L183.984 23.1212C184.066 22.5993 184.066 22.1597 184.066 21.7108V21.7055C184.066 17.36 180.674 13.9141 176.222 13.9141ZM147.637 14.3126H144.432V22.7414C144.432 25.3738 145.189 27.1592 146.384 28.2845C147.576 29.4071 149.171 29.8421 150.789 29.8421C152.505 29.8421 154.062 29.2925 154.95 28.2702V29.4702H157.916V14.3126H154.711V22.4757C154.711 23.8669 154.392 24.9662 153.79 25.7136C153.195 26.4535 152.3 26.8761 151.081 26.8761C149.864 26.8761 149.022 26.5197 148.475 25.8309C147.92 25.1313 147.637 24.0492 147.637 22.5289V14.3126ZM122.265 20.7404H113.251C113.571 18.4695 115.651 16.8802 117.732 16.8802C119.914 16.8802 121.947 18.4922 122.265 20.7404ZM180.835 20.7404H171.821C172.141 18.4695 174.22 16.8802 176.302 16.8802C178.484 16.8802 180.517 18.4922 180.835 20.7404ZM102.582 41.8361H96.6498V61.9342H99.9611V54.1783H102.608C104.767 54.1783 106.544 53.6456 107.785 52.5953C109.031 51.5405 109.709 49.9867 109.709 48.0072C109.709 46.0262 109.017 44.4727 107.761 43.4185C106.51 42.3689 104.727 41.8361 102.582 41.8361ZM123.824 41.8361H120.618V45.5193H123.824V41.8361ZM99.9611 51.106V44.9084H102.555C103.773 44.9084 104.734 45.1936 105.386 45.7134C106.03 46.2275 106.398 46.9904 106.398 48.0072C106.398 49.0125 106.042 49.7757 105.407 50.2924C104.765 50.8144 103.812 51.106 102.582 51.106H99.9611ZM118.357 49.6556V46.3656L118.124 46.3784C116.433 46.4711 115.299 46.9622 114.559 47.7588V46.7765H111.54V61.9342H114.745V53.4522C114.745 52.2512 115.042 51.3277 115.599 50.697C116.154 50.0694 116.993 49.7011 118.143 49.6627L118.357 49.6556ZM147.849 46.3781C143.393 46.3781 139.925 49.7748 139.925 54.5944C139.925 58.9773 143.541 62.306 147.955 62.306C149.896 62.306 151.657 61.5541 152.78 60.0756V61.9342H155.986V46.7765H152.78V48.4805C151.586 47.0534 149.852 46.3781 147.849 46.3781ZM166.08 46.3781C161.643 46.3781 158.341 49.9419 158.341 54.4881C158.341 58.8045 161.758 62.306 166.106 62.306C169.467 62.306 172.366 60.334 173.566 56.9256L173.67 56.6307H170.133L170.075 56.7607C169.339 58.3837 167.903 59.34 166.106 59.34C163.461 59.34 161.546 57.1513 161.546 54.3288C161.546 52.8756 162.015 51.6297 162.82 50.7496C163.623 49.8711 164.771 49.3441 166.159 49.3441C167.115 49.3441 167.9 49.5918 168.543 50.0383C169.188 50.4861 169.704 51.143 170.103 51.9804L170.163 52.1065H173.648L173.571 51.8264C172.665 48.5322 169.514 46.3781 166.08 46.3781ZM123.824 46.7765H120.618V61.9342H123.824V46.7765ZM128.838 46.7765H125.408L131.428 61.9342H133.668L139.632 46.7765H136.203L132.559 56.9397L128.838 46.7765ZM177.081 46.7765H173.624L179.584 61.42L177.34 66.848H180.688L188.999 46.7765H185.541L181.26 57.8014L177.081 46.7765ZM143.13 54.3819C143.13 51.5992 145.298 49.3441 147.929 49.3441C150.848 49.3441 152.834 51.6226 152.834 54.3819C152.834 57.0538 150.67 59.34 147.929 59.34C145.297 59.34 143.13 57.0311 143.13 54.3819Z" fill="white"/>
<path fill-rule="evenodd" clip-rule="evenodd" d="M33.891 28.0667C35.8635 28.0667 37.4774 29.6757 37.4774 31.6422C37.4774 32.8936 36.8497 34.0556 35.8635 34.6813L37.4774 40.9383H33.891H30.3047L31.9185 34.6813C30.9323 34.0556 30.3047 32.8936 30.3047 31.6422C30.3047 29.7651 31.9185 28.0667 33.891 28.0667Z" fill="white"/>
<path d="M9.86241 49.0731C10.1314 49.52 10.4004 49.9669 10.759 50.4139C11.1176 50.8608 11.3866 51.3077 11.8349 51.7547C12.1935 52.2016 12.6418 52.6485 13.0005 53.0955C13.4487 53.5424 13.897 53.9893 14.3453 54.5256C14.7936 54.9726 15.2419 55.4195 15.7799 55.9558C16.3178 56.4028 16.7661 56.9391 17.3041 57.386C17.842 57.8329 18.38 58.2799 18.9179 58.8162C19.4559 59.2631 19.9938 59.7101 20.6214 60.157C21.249 60.6039 21.787 61.0508 22.4146 61.4978C23.0422 61.9447 23.6698 62.3916 24.2077 62.7492C24.8354 63.1961 25.463 63.5537 26.0906 64.0006C26.6285 64.3581 27.2561 64.7157 27.8837 65.1626C28.4217 65.5202 29.0493 65.8777 29.7666 66.2353C30.3942 66.5928 31.0218 66.9503 31.6494 67.3079C32.3666 67.6654 32.9943 68.023 33.6219 68.3805L33.7115 68.4699L33.8012 68.3805C34.4288 68.023 35.1461 67.6654 35.7737 67.3079C36.4013 66.9503 37.1185 66.5928 37.6565 66.2353C38.2841 65.8777 38.9117 65.5202 39.5393 65.1626C40.1669 64.8051 40.7945 64.3581 41.4221 64.0006C42.0497 63.5537 42.6774 63.1961 43.305 62.7492C43.9326 62.3023 44.5602 61.9447 45.0981 61.4978C45.7257 61.0508 46.2637 60.6039 46.8913 60.157C47.4292 59.7101 48.0569 59.2631 48.5948 58.8162C49.2224 58.3693 49.7604 57.8329 50.2086 57.386C50.7466 56.9391 51.2845 56.4028 51.7328 55.9558C52.2708 55.5089 52.7191 54.9726 53.1674 54.5256C53.6157 54.0787 54.064 53.6318 54.5122 53.0955C54.9605 52.6485 55.3192 52.2016 55.6778 51.7547C56.0364 51.3077 56.3951 50.8608 56.7537 50.4139C57.1123 49.9669 57.3813 49.52 57.6503 49.0731C57.9193 48.6262 58.1882 48.1792 58.3676 47.8217C58.5469 47.5535 58.6365 47.2854 58.8158 47.0172C58.9055 46.749 59.0848 46.4809 59.1745 46.3021C59.2641 46.0339 59.3538 45.8552 59.4435 45.587C59.5331 45.4082 59.5331 45.1401 59.6228 44.9613C59.7124 44.5144 59.7124 44.0674 59.8021 43.6205C59.8021 43.1736 59.8021 42.7267 59.8021 42.1903V41.9222V41.8328C59.8021 41.5646 59.8021 41.3859 59.8021 41.2965C59.8021 41.1177 59.8021 40.9389 59.8021 40.7602V40.5814H50.8363C47.5189 48.8943 41.8704 55.9558 33.7115 62.8386C25.6423 55.9558 19.9041 48.8943 16.5868 40.5814H7.80027H7.26232H4.03462H3.49667H0.896583H0.358633V40.0451V16.0001V15.0169V14.6594V14.3912L0.53795 14.3018L0.806925 14.0337L1.52419 13.4079C2.60009 12.3353 3.76565 11.3521 4.93121 10.3688C6.09676 9.38556 7.35198 8.4917 8.6072 7.68722C9.86241 6.88275 11.2073 6.07827 12.4625 5.36318C13.8074 4.64809 15.1523 4.02238 16.4971 3.48607C17.842 2.94975 19.2765 2.41343 20.7111 1.9665C22.1456 1.51957 23.6698 1.16202 25.1043 0.893863C26.5389 0.625704 28.063 0.357545 29.4976 0.268159C30.9321 0.0893863 32.4563 0 33.8908 0C35.3254 0 36.8496 0.0893863 38.2841 0.178773C39.8083 0.357545 41.2428 0.625704 42.6774 0.893863C44.1119 1.16202 45.5464 1.51957 46.981 1.9665C48.4155 2.41343 49.85 2.86036 51.1949 3.48607C52.5398 4.02238 53.8846 4.64809 55.2295 5.36318C56.5744 6.07827 57.8296 6.79336 59.0848 7.68722C60.34 8.4917 61.5953 9.38556 62.7608 10.3688C63.9264 11.3521 65.0919 12.3353 66.1678 13.4079L66.8851 14.123L67.1541 14.3912L67.3334 14.57V14.8381V15.1957V16.1789V27.3522V27.7098H66.7954H60.4297H59.8918V27.1734V17.6985V17.6091L59.8021 17.5197C58.9055 16.7152 58.0089 16.0001 57.0227 15.2851C56.0364 14.57 55.1399 13.9443 54.1536 13.3186C53.1674 12.6929 52.0915 12.1565 51.1052 11.6202C50.0293 11.0839 49.0431 10.637 47.9672 10.19C46.8016 9.74311 45.7257 9.38556 44.5602 9.02802C43.3946 8.67047 42.2291 8.40231 41.0635 8.13415C39.8979 7.866 38.6427 7.77661 37.4772 7.59784C36.3116 7.50845 35.0564 7.41906 33.8908 7.41906C32.7253 7.41906 31.4701 7.50845 30.3045 7.59784C29.139 7.68722 27.8837 7.866 26.7182 8.13415C25.5526 8.40231 24.3871 8.67047 23.2215 9.02802C22.0559 9.38556 20.8904 9.74311 19.8145 10.19C18.7386 10.637 17.6627 11.0839 16.6764 11.6202C15.6902 12.1565 14.6143 12.6929 13.6281 13.3186C12.6418 13.9443 11.6556 14.57 10.759 15.2851C9.86241 16.0001 8.87617 16.7152 7.97959 17.5197L7.88993 17.6091V17.6985V32.9835H14.6143C13.7177 28.7824 13.2694 24.2237 13.3591 19.2181C27.5251 14.6594 40.4359 14.6594 54.6019 19.2181C54.6916 24.2237 54.2433 28.7824 53.3467 32.9835H60.0711H60.609H66.9748H67.5127V33.5199V40.5814C67.5127 43.9781 67.5127 45.6764 67.2437 47.0172C66.9748 48.4474 66.4368 49.3412 65.4506 51.129L65.3609 51.3077C65.0919 51.8441 64.7333 52.3804 64.3747 52.9167C64.016 53.453 63.6574 53.9893 63.2091 54.5256C62.8505 55.062 62.4022 55.5983 61.9539 56.224C61.5056 56.7603 61.0573 57.386 60.5194 57.9223C60.0711 58.4586 59.5331 58.995 58.9952 59.6207C58.4572 60.157 57.9193 60.6933 57.2917 61.2296C56.7537 61.7659 56.1261 62.3023 55.4985 62.8386C54.8709 63.3749 54.2433 63.9112 53.6157 64.4475C52.9881 64.9838 52.3605 65.4308 51.6432 65.9671C51.0156 66.5034 50.2983 66.9503 49.581 67.4867C48.8638 67.9336 48.1465 68.4699 47.4292 69.0062C46.712 69.4532 45.9947 69.9895 45.1878 70.4364C44.4705 70.8833 43.6636 71.4197 42.8567 71.8666C42.1394 72.3135 41.3325 72.7605 40.4359 73.2074C39.629 73.6543 38.822 74.1012 37.9255 74.5482C37.1185 74.9951 36.222 75.442 35.415 75.7996L34.3391 76.3359L33.9805 76.5147L33.7115 76.6041L33.4426 76.5147L33.0839 76.3359L32.008 75.7996C31.1114 75.3527 30.3045 74.9951 29.4976 74.5482C28.6907 74.1012 27.7941 73.6543 26.9872 73.2074C26.1802 72.7605 25.3733 72.3135 24.5664 71.8666C23.7594 71.4197 23.0422 70.9727 22.2353 70.4364C21.4283 69.9895 20.7111 69.4532 19.9938 69.0062C19.2765 68.4699 18.5593 68.023 17.842 67.4867C17.1247 66.9503 16.4971 66.5034 15.7799 65.9671C15.0626 65.4308 14.435 64.8945 13.8074 64.4475C13.1798 63.9112 12.5522 63.3749 11.9246 62.8386C11.2969 62.3023 10.6693 61.7659 10.1314 61.2296C9.59344 60.6933 8.96583 60.157 8.42788 59.6207C7.88993 59.0843 7.35198 58.4586 6.90369 57.9223C6.36574 57.386 5.91745 56.7603 5.46916 56.224C5.02086 55.6877 4.57257 55.1514 4.21394 54.5256C3.85531 53.9893 3.40702 53.453 3.04838 52.9167C2.68975 52.3804 2.33112 51.8441 2.06214 51.3077L1.97248 51.129C1.43453 50.0563 0.986241 49.3412 0.717266 48.6262C0.448292 47.9111 0.179317 47.196 0.0896583 46.2127L0 45.587H0.627608H7.26232H7.62096L7.80027 45.9446V46.0339V46.1233C7.88993 46.3915 7.97959 46.5703 8.15891 46.8384C8.24856 47.1066 8.42788 47.3747 8.6072 47.6429C9.32446 48.1792 9.50378 48.6262 9.86241 49.0731ZM47.2499 24.1343C39.0014 21.989 28.87 21.8996 20.5318 24.1343C20.8904 35.3076 25.9113 45.9446 33.8908 53.7212C41.8704 45.8552 46.8913 35.3076 47.2499 24.1343Z" fill="white"/>
</svg>
