<svg width="120" height="48" viewBox="0 0 120 48" fill="none" xmlns="http://www.w3.org/2000/svg">
<path fill-rule="evenodd" clip-rule="evenodd" d="M64.4998 5.63965C62.5299 5.63965 60.916 7.17904 60.916 9.14028C60.916 10.0334 61.0868 10.7593 61.666 11.3914C62.2377 12.0152 63.1935 12.5319 64.7214 13.0496C65.3688 13.2709 65.77 13.5143 66.0107 13.7968C66.2475 14.0745 66.3417 14.4051 66.3417 14.8323C66.3417 15.4099 66.1561 15.8944 65.8383 16.2332C65.5214 16.5712 65.064 16.774 64.4998 16.774C63.9377 16.774 63.4812 16.5644 63.1618 16.2048C62.8409 15.8435 62.6493 15.3203 62.6413 14.6808L62.6396 14.5438H60.5645L60.5665 14.6845C60.5836 15.8726 60.9945 16.8776 61.6923 17.5863C62.3904 18.2952 63.3673 18.6991 64.4998 18.6991C65.6222 18.6991 66.6026 18.3131 67.3031 17.6321C68.0041 16.9507 68.4165 15.9818 68.4165 14.8323C68.4165 13.7442 68.1649 12.9238 67.5556 12.2684C66.9522 11.6195 66.0127 11.1488 64.6752 10.7224C64.0833 10.5334 63.6617 10.3207 63.3888 10.0612C63.122 9.8076 62.9908 9.50324 62.9908 9.107C62.9908 8.28307 63.7127 7.56472 64.4998 7.56472C64.9767 7.56472 65.3721 7.72053 65.6479 7.99635C65.9235 8.27195 66.092 8.67967 66.092 9.20686V9.34555H68.1691L68.1669 9.20471C68.1497 8.09885 67.763 7.20433 67.1081 6.58659C66.4541 5.96963 65.5443 5.63965 64.4998 5.63965ZM105.962 10.7723V8.71085L105.815 8.71886C104.756 8.77692 104.046 9.08465 103.582 9.58378V8.9683H101.69V18.4661H103.698V13.1513C103.698 12.3987 103.884 11.8201 104.233 11.4249C104.581 11.0317 105.107 10.8008 105.828 10.7768L105.962 10.7723ZM74.5074 8.71865C71.9817 8.71865 69.7252 10.8138 69.7252 13.8004C69.7252 16.3351 71.8794 18.6991 74.5573 18.6991C76.598 18.6991 78.379 17.4294 79.1142 15.4804L79.185 15.2927H77.171L77.1316 15.3653C76.6244 16.3004 75.6573 16.8406 74.6239 16.8406C73.3329 16.8406 72.2074 15.9811 71.7787 14.6048H79.3526L79.3711 14.4878C79.4227 14.1608 79.4227 13.8853 79.4227 13.6041V13.604V13.6007C79.4227 10.8778 77.2968 8.71865 74.5074 8.71865ZM85.2357 8.71865C82.4557 8.71865 80.3869 10.9517 80.3869 13.8004C80.3869 16.505 82.5278 18.6991 85.2523 18.6991C87.3585 18.6991 89.175 17.4634 89.9267 15.3277L89.9918 15.143H87.7759L87.739 15.2244C87.2782 16.2413 86.3781 16.8406 85.2523 16.8406C83.595 16.8406 82.3952 15.4691 82.3952 13.7005C82.3952 12.79 82.6891 12.0093 83.1931 11.4578C83.6962 10.9074 84.4157 10.5772 85.2856 10.5772C85.8843 10.5772 86.3762 10.7324 86.7793 11.0122C87.1835 11.2928 87.5065 11.7043 87.7568 12.2291L87.7944 12.3081H89.9779L89.9297 12.1326C89.362 10.0684 87.3879 8.71865 85.2357 8.71865ZM111.207 8.71865C108.681 8.71865 106.425 10.8138 106.425 13.8004C106.425 16.3351 108.579 18.6991 111.257 18.6991C113.298 18.6991 115.079 17.4294 115.814 15.4804L115.885 15.2927H113.871L113.831 15.3653C113.324 16.3004 112.357 16.8406 111.324 16.8406C110.033 16.8406 108.907 15.9811 108.478 14.6048H116.052L116.071 14.4878C116.122 14.1608 116.122 13.8853 116.122 13.604V13.6007C116.122 10.8778 113.997 8.71865 111.207 8.71865ZM93.2958 8.9683H91.2875V14.2498C91.2875 15.8993 91.7619 17.018 92.5107 17.7231C93.2577 18.4265 94.2573 18.6991 95.2708 18.6991C96.3458 18.6991 97.3219 18.3547 97.8782 17.7142V18.4661H99.7367V8.9683H97.7284V14.0833C97.7284 14.955 97.5286 15.6439 97.1516 16.1121C96.7784 16.5758 96.2176 16.8406 95.4539 16.8406C94.6916 16.8406 94.1638 16.6173 93.8212 16.1857C93.4732 15.7473 93.2958 15.0693 93.2958 14.1166V8.9683ZM77.3979 12.996H71.7499C71.9504 11.573 73.2533 10.5772 74.5573 10.5772C75.9245 10.5772 77.1987 11.5873 77.3979 12.996ZM114.098 12.996H108.45C108.65 11.573 109.953 10.5772 111.257 10.5772C112.624 10.5772 113.898 11.5873 114.098 12.996ZM65.064 26.2148H61.347V38.8082H63.4218V33.9484H65.0806C66.4331 33.9484 67.5465 33.6146 68.3241 32.9565C69.105 32.2955 69.5299 31.322 69.5299 30.0816C69.5299 28.8403 69.0961 27.8669 68.3091 27.2063C67.5255 26.5487 66.4083 26.2148 65.064 26.2148ZM78.374 26.2148H76.3657V28.5227H78.374V26.2148ZM63.4218 32.0233V28.1399H65.0473C65.8101 28.1399 66.4122 28.3186 66.8207 28.6443C67.2249 28.9664 67.455 29.4445 67.455 30.0816C67.455 30.7115 67.2323 31.1897 66.8342 31.5135C66.4321 31.8406 65.8347 32.0233 65.064 32.0233H63.4218ZM74.9489 31.1145V29.053L74.8026 29.061C73.743 29.1191 73.0327 29.4268 72.5689 29.9259V29.3104H70.6771V38.8082H72.6854V33.4935C72.6854 32.7409 72.8715 32.1622 73.2206 31.767C73.568 31.3738 74.0939 31.143 74.8148 31.1189L74.9489 31.1145ZM93.4283 29.0608C90.6363 29.0608 88.463 31.1892 88.463 34.2091C88.463 36.9555 90.7291 39.0412 93.4948 39.0412C94.7112 39.0412 95.8147 38.5701 96.5184 37.6436V38.8082H98.5267V29.3104H96.5184V30.3782C95.7701 29.4839 94.6835 29.0608 93.4283 29.0608ZM104.852 29.0608C102.072 29.0608 100.003 31.2939 100.003 34.1425C100.003 36.8472 102.144 39.0412 104.868 39.0412C106.974 39.0412 108.791 37.8055 109.543 35.6698L109.608 35.4851H107.392L107.355 35.5666C106.894 36.5835 105.994 37.1827 104.868 37.1827C103.211 37.1827 102.011 35.8113 102.011 34.0427C102.011 33.1321 102.305 32.3515 102.809 31.8C103.312 31.2495 104.032 30.9193 104.901 30.9193C105.5 30.9193 105.992 31.0745 106.395 31.3543C106.799 31.6349 107.122 32.0465 107.373 32.5712L107.41 32.6502H109.594L109.546 32.4747C108.978 30.4106 107.004 29.0608 104.852 29.0608ZM78.374 29.3104H76.3657V38.8082H78.374V29.3104ZM81.5158 29.3104H79.3671L83.1388 38.8082H84.5424L88.2798 29.3104H86.1311L83.8476 35.6787L81.5158 29.3104ZM111.745 29.3104H109.579L113.313 38.486L111.908 41.8872H114.005L119.213 29.3104H117.046L114.363 36.2186L111.745 29.3104ZM90.4713 34.076C90.4713 32.3323 91.8299 30.9193 93.4782 30.9193C95.3077 30.9193 96.5517 32.347 96.5517 34.076C96.5517 35.7502 95.1958 37.1827 93.4782 37.1827C91.8294 37.1827 90.4713 35.7359 90.4713 34.076Z" fill="url(#paint0_linear_4608_6477)"/>
<path fill-rule="evenodd" clip-rule="evenodd" d="M22.0228 17.5865C23.2588 17.5865 24.27 18.5947 24.27 19.8269C24.27 20.6111 23.8768 21.3392 23.2588 21.7312L24.27 25.6519H22.0228H19.7756L20.7869 21.7312C20.1689 21.3392 19.7756 20.6111 19.7756 19.8269C19.7756 18.6507 20.7869 17.5865 22.0228 17.5865Z" fill="url(#paint1_linear_4608_6477)"/>
<path d="M6.96664 30.7491C7.13518 31.0292 7.30372 31.3092 7.52844 31.5893C7.75316 31.8693 7.9217 32.1494 8.2026 32.4294C8.42732 32.7095 8.70822 32.9895 8.93293 33.2695C9.21383 33.5496 9.49473 33.8296 9.77563 34.1657C10.0565 34.4457 10.3374 34.7258 10.6745 35.0618C11.0116 35.3419 11.2925 35.6779 11.6296 35.958C11.9666 36.238 12.3037 36.5181 12.6408 36.8541C12.9779 37.1342 13.315 37.4142 13.7082 37.6943C14.1015 37.9743 14.4386 38.2544 14.8318 38.5344C15.2251 38.8145 15.6183 39.0945 15.9554 39.3186C16.3487 39.5986 16.7419 39.8226 17.1352 40.1027C17.4723 40.3267 17.8655 40.5508 18.2588 40.8308C18.5959 41.0548 18.9891 41.2789 19.4386 41.5029C19.8318 41.727 20.2251 41.951 20.6183 42.175C21.0678 42.3991 21.461 42.6231 21.8543 42.8471L21.9105 42.9031L21.9666 42.8471C22.3599 42.6231 22.8093 42.3991 23.2026 42.175C23.5959 41.951 24.0453 41.727 24.3824 41.5029C24.7756 41.2789 25.1689 41.0548 25.5622 40.8308C25.9554 40.6068 26.3487 40.3267 26.7419 40.1027C27.1352 39.8226 27.5284 39.5986 27.9217 39.3186C28.315 39.0385 28.7082 38.8145 29.0453 38.5344C29.4386 38.2544 29.7756 37.9743 30.1689 37.6943C30.506 37.4142 30.8992 37.1342 31.2363 36.8541C31.6296 36.5741 31.9666 36.238 32.2475 35.958C32.5846 35.6779 32.9217 35.3419 33.2026 35.0618C33.5397 34.7818 33.8206 34.4457 34.1015 34.1657C34.3824 33.8856 34.6633 33.6056 34.9442 33.2695C35.2251 32.9895 35.4498 32.7095 35.6745 32.4294C35.8992 32.1494 36.124 31.8693 36.3487 31.5893C36.5734 31.3092 36.7419 31.0292 36.9105 30.7491C37.079 30.4691 37.2475 30.189 37.3599 29.965C37.4723 29.797 37.5284 29.6289 37.6408 29.4609C37.697 29.2929 37.8093 29.1249 37.8655 29.0128C37.9217 28.8448 37.9779 28.7328 38.0341 28.5648C38.0902 28.4527 38.0902 28.2847 38.1464 28.1727C38.2026 27.8926 38.2026 27.6126 38.2588 27.3326C38.2588 27.0525 38.2588 26.7725 38.2588 26.4364V26.2684V26.2124C38.2588 26.0443 38.2588 25.9323 38.2588 25.8763C38.2588 25.7643 38.2588 25.6523 38.2588 25.5403V25.4282H32.6408C30.5622 30.6371 27.0228 35.0618 21.9105 39.3746C16.8543 35.0618 13.2588 30.6371 11.1801 25.4282H5.67451H5.33743H3.31496H2.97788H1.34866H1.01158V25.0922V10.0257V9.40957V9.18553V9.0175L1.12394 8.96149L1.29248 8.79347L1.74192 8.4014C2.41608 7.72929 3.14642 7.11319 3.87675 6.49708C4.60709 5.88098 5.39361 5.32089 6.18012 4.8168C6.96664 4.31272 7.80934 3.80863 8.59586 3.36056C9.43855 2.91249 10.2812 2.52042 11.1239 2.18436C11.9666 1.84831 12.8655 1.51225 13.7644 1.23221C14.6633 0.952159 15.6183 0.728121 16.5172 0.560093C17.4161 0.392065 18.3711 0.224037 19.27 0.168028C20.1689 0.0560093 21.1239 0 22.0228 0C22.9217 0 23.8768 0.0560093 24.7756 0.112019C25.7307 0.224037 26.6296 0.392065 27.5284 0.560093C28.4273 0.728121 29.3262 0.952159 30.2251 1.23221C31.124 1.51225 32.0228 1.7923 32.8655 2.18436C33.7082 2.52042 34.5509 2.91249 35.3936 3.36056C36.2363 3.80863 37.0228 4.25671 37.8093 4.8168C38.5959 5.32089 39.3824 5.88098 40.1127 6.49708C40.8431 7.11319 41.5734 7.72929 42.2475 8.4014L42.697 8.84947L42.8655 9.0175L42.9779 9.12952V9.29755V9.52159V10.1377V17.1389V17.3629H42.6408H38.652H38.315V17.0268V11.0898V11.0338L38.2588 10.9778C37.697 10.4737 37.1352 10.0257 36.5172 9.5776C35.8992 9.12952 35.3374 8.73746 34.7195 8.34539C34.1015 7.95333 33.4273 7.61727 32.8093 7.28121C32.1352 6.94516 31.5172 6.66511 30.8431 6.38506C30.1127 6.10502 29.4386 5.88098 28.7082 5.65694C27.9779 5.43291 27.2475 5.26488 26.5172 5.09685C25.7869 4.92882 25.0004 4.87281 24.27 4.76079C23.5397 4.70478 22.7532 4.64877 22.0228 4.64877C21.2925 4.64877 20.506 4.70478 19.7756 4.76079C19.0453 4.8168 18.2588 4.92882 17.5284 5.09685C16.7981 5.26488 16.0678 5.43291 15.3374 5.65694C14.6071 5.88098 13.8768 6.10502 13.2026 6.38506C12.5284 6.66511 11.8543 6.94516 11.2363 7.28121C10.6183 7.61727 9.94417 7.95333 9.32619 8.34539C8.70821 8.73746 8.09024 9.12952 7.52844 9.5776C6.96664 10.0257 6.34866 10.4737 5.78687 10.9778L5.73069 11.0338V11.0898V20.6674H9.94417C9.38237 18.035 9.10147 15.1785 9.15765 12.042C18.0341 9.18553 26.1239 9.18553 35.0004 12.042C35.0565 15.1785 34.7756 18.035 34.2138 20.6674H38.4273H38.7644H42.7532H43.0902V21.0035V25.4282C43.0902 27.5566 43.0902 28.6208 42.9217 29.4609C42.7532 30.3571 42.4161 30.9172 41.7981 32.0373L41.7419 32.1494C41.5734 32.4854 41.3487 32.8215 41.124 33.1575C40.8992 33.4936 40.6745 33.8296 40.3936 34.1657C40.1689 34.5018 39.888 34.8378 39.6071 35.2299C39.3262 35.5659 39.0453 35.958 38.7082 36.2941C38.4273 36.6301 38.0902 36.9662 37.7532 37.3582C37.4161 37.6943 37.079 38.0303 36.6857 38.3664C36.3487 38.7024 35.9554 39.0385 35.5622 39.3746C35.1689 39.7106 34.7756 40.0467 34.3824 40.3827C33.9891 40.7188 33.5959 40.9988 33.1464 41.3349C32.7532 41.6709 32.3037 41.951 31.8543 42.287C31.4049 42.5671 30.9554 42.9031 30.506 43.2392C30.0565 43.5193 29.6071 43.8553 29.1015 44.1354C28.652 44.4154 28.1464 44.7515 27.6408 45.0315C27.1914 45.3116 26.6857 45.5916 26.1239 45.8716C25.6183 46.1517 25.1127 46.4317 24.5509 46.7118C24.0453 46.9918 23.4835 47.2719 22.9779 47.4959L22.3037 47.832L22.079 47.944L21.9105 48L21.7419 47.944L21.5172 47.832L20.8431 47.4959C20.2813 47.2159 19.7756 46.9918 19.27 46.7118C18.7644 46.4317 18.2026 46.1517 17.697 45.8716C17.1914 45.5916 16.6857 45.3116 16.1801 45.0315C15.6745 44.7515 15.2251 44.4714 14.7195 44.1354C14.2138 43.8553 13.7644 43.5193 13.315 43.2392C12.8655 42.9031 12.4161 42.6231 11.9666 42.287C11.5172 41.951 11.1239 41.6709 10.6745 41.3349C10.2251 40.9988 9.83181 40.6628 9.43855 40.3827C9.04529 40.0467 8.65203 39.7106 8.25878 39.3746C7.86552 39.0385 7.47226 38.7024 7.13518 38.3664C6.7981 38.0303 6.40484 37.6943 6.06776 37.3582C5.73069 37.0222 5.39361 36.6301 5.11271 36.2941C4.77563 35.958 4.49473 35.5659 4.21383 35.2299C3.93293 34.8938 3.65203 34.5578 3.42732 34.1657C3.2026 33.8296 2.9217 33.4936 2.69698 33.1575C2.47226 32.8215 2.24754 32.4854 2.079 32.1494L2.02282 32.0373C1.68574 31.3652 1.40484 30.9172 1.2363 30.4691C1.06776 30.021 0.899225 29.5729 0.843045 28.9568L0.786865 28.5648H1.18012H5.33743H5.56215L5.67451 28.7888V28.8448V28.9008C5.73069 29.0688 5.78687 29.1809 5.89923 29.3489C5.95541 29.5169 6.06776 29.6849 6.18012 29.853C6.62956 30.189 6.74192 30.4691 6.96664 30.7491ZM30.3936 15.1225C25.2251 13.7783 18.8768 13.7223 13.652 15.1225C13.8768 22.1237 17.0228 28.7888 22.0228 33.6616C27.0228 28.7328 30.1689 22.1237 30.3936 15.1225Z" fill="url(#paint2_linear_4608_6477)"/>
<defs>
<linearGradient id="paint0_linear_4608_6477" x1="33.8519" y1="85.4315" x2="171.719" y2="83.5586" gradientUnits="userSpaceOnUse">
<stop stop-color="#24B04B"/>
<stop offset="1" stop-color="#0263BC"/>
</linearGradient>
<linearGradient id="paint1_linear_4608_6477" x1="17.7286" y1="35.3408" x2="28.2954" y2="35.2914" gradientUnits="userSpaceOnUse">
<stop stop-color="#24B04B"/>
<stop offset="1" stop-color="#0263BC"/>
</linearGradient>
<linearGradient id="paint2_linear_4608_6477" x1="-18.481" y1="105.663" x2="80.9761" y2="104.927" gradientUnits="userSpaceOnUse">
<stop stop-color="#24B04B"/>
<stop offset="1" stop-color="#0263BC"/>
</linearGradient>
</defs>
</svg>
