<svg width="64" height="64" viewBox="0 0 64 64" fill="none" xmlns="http://www.w3.org/2000/svg">
<path fill-rule="evenodd" clip-rule="evenodd" d="M31.9993 2.66675C15.799 2.66675 2.66602 15.7997 2.66602 32.0001C2.66602 48.2004 15.799 61.3334 31.9993 61.3334C48.1997 61.3334 61.3327 48.2004 61.3327 32.0001C61.3327 15.7997 48.1997 2.66675 31.9993 2.66675ZM45.885 25.8857C46.9264 24.8443 46.9264 23.1559 45.885 22.1145C44.8436 21.0731 43.1551 21.0731 42.1137 22.1145L27.9993 36.2288L21.885 30.1145C20.8436 29.0731 19.1551 29.0731 18.1137 30.1145C17.0723 31.1559 17.0723 32.8443 18.1137 33.8857L26.1137 41.8857C27.1551 42.9271 28.8436 42.9271 29.885 41.8857L45.885 25.8857Z" fill="url(#paint0_linear_4608_6987)"/>
<defs>
<linearGradient id="paint0_linear_4608_6987" x1="-24.0548" y1="131.81" x2="113.871" y2="130.652" gradientUnits="userSpaceOnUse">
<stop stop-color="#24B04B"/>
<stop offset="1" stop-color="#0263BC"/>
</linearGradient>
</defs>
</svg>
