<svg width="46" height="46" viewBox="0 0 46 46" fill="none" xmlns="http://www.w3.org/2000/svg">
<rect width="46" height="46" rx="8" fill="white"/>
<path d="M24 14.0009C24 13.4486 23.5523 13.0009 23 13.0009C22.4477 13.0009 22 13.4486 22 14.0009V14.7891H16C15.4477 14.7891 15 15.2368 15 15.7891C15 16.3414 15.4477 16.7891 16 16.7891H30C30.5523 16.7891 31 16.3414 31 15.7891C31 15.2368 30.5523 14.7891 30 14.7891H24V14.0009Z" fill="#EA2D2D"/>
<path d="M26.9875 23.3233C27.0746 22.778 26.7031 22.2652 26.1578 22.1781C25.6124 22.091 25.0997 22.4624 25.0125 23.0078L24.0125 29.2666C23.9254 29.812 24.2969 30.3247 24.8422 30.4119C25.3876 30.499 25.9003 30.1275 25.9875 29.5822L26.9875 23.3233Z" fill="#EA2D2D"/>
<path d="M20.9875 23.0078C20.9003 22.4624 20.3876 22.091 19.8422 22.1781C19.2969 22.2652 18.9254 22.778 19.0125 23.3233L20.0125 29.5822C20.0997 30.1275 20.6124 30.499 21.1578 30.4119C21.7031 30.3247 22.0746 29.812 21.9875 29.2666L20.9875 23.0078Z" fill="#EA2D2D"/>
<path fill-rule="evenodd" clip-rule="evenodd" d="M17.189 18.5891C15.9474 18.5891 15.0058 19.7086 15.2186 20.9319L17.0598 31.5151C17.3098 32.9519 18.557 34.0009 20.0154 34.0009H25.9846C27.443 34.0009 28.6902 32.9519 28.9402 31.5151L30.7814 20.9319C30.9942 19.7086 30.0526 18.5891 28.811 18.5891H17.189ZM19.0302 31.1723L17.189 20.5891H28.811L26.9698 31.1723C26.8865 31.6512 26.4707 32.0009 25.9846 32.0009H20.0154C19.5293 32.0009 19.1135 31.6512 19.0302 31.1723Z" fill="#EA2D2D"/>
</svg>
